<?xml version="1.0" encoding="iso-8859-1"?>
<!-- Uploaded to: SVG Repo, www.svgrepo.com, Generator: SVG Repo Mixer Tools -->
<!DOCTYPE svg PUBLIC "-//W3C//DTD SVG 1.1//EN" "http://www.w3.org/Graphics/SVG/1.1/DTD/svg11.dtd">
<svg fill="currentColor" version="1.1" id="Capa_1" xmlns="http://www.w3.org/2000/svg" xmlns:xlink="http://www.w3.org/1999/xlink" 
	 width="800px" height="800px" viewBox="0 0 204.41 204.41"
	 xml:space="preserve">
<g>
	<g>
		<path d="M100.178,0.833c-3.153,3.3-77.344,81.287-77.344,124.212c0,43.771,35.604,79.365,79.371,79.365
			c43.782,0,79.371-35.6,79.371-79.365c0-42.925-74.188-120.912-77.344-124.212C103.171-0.278,101.231-0.278,100.178,0.833z
			 M102.2,198.808c-40.673,0-73.768-33.095-73.768-73.773c0-36.89,61.705-105.18,73.768-118.173
			c12.051,12.982,73.768,81.284,73.768,118.173C175.968,165.713,142.873,198.808,102.2,198.808z"/>
	</g>
</g>
</svg>